<mxfile host="Electron" modified="2024-03-29T01:11:30.253Z" agent="Mozilla/5.0 (Windows NT 10.0; Win64; x64) AppleWebKit/537.36 (KHTML, like Gecko) draw.io/22.0.2 Chrome/114.0.5735.289 Electron/25.8.4 Safari/537.36" etag="9wu6gWsYOgRWiZZGQw71" version="22.0.2" type="device">
  <diagram name="Page-1" id="YDKOmOmPTuAC40QdWCBN">
    <mxGraphModel dx="576" dy="344" grid="1" gridSize="10" guides="1" tooltips="1" connect="1" arrows="1" fold="1" page="1" pageScale="1" pageWidth="850" pageHeight="1100" math="0" shadow="0">
      <root>
        <mxCell id="0" />
        <mxCell id="1" parent="0" />
        <mxCell id="SdDbY7e7l-mcpIlHTUZ3-57" value="" style="endArrow=none;dashed=1;html=1;rounded=0;strokeColor=#0066CC;" edge="1" parent="1">
          <mxGeometry width="50" height="50" relative="1" as="geometry">
            <mxPoint x="475" y="379.84" as="sourcePoint" />
            <mxPoint x="420" y="379.95" as="targetPoint" />
          </mxGeometry>
        </mxCell>
        <mxCell id="SdDbY7e7l-mcpIlHTUZ3-21" value="" style="rounded=0;whiteSpace=wrap;html=1;" vertex="1" parent="1">
          <mxGeometry x="512.5" y="395" width="5" height="80" as="geometry" />
        </mxCell>
        <mxCell id="SdDbY7e7l-mcpIlHTUZ3-20" value="" style="rounded=0;whiteSpace=wrap;html=1;" vertex="1" parent="1">
          <mxGeometry x="382.5" y="395" width="5" height="80" as="geometry" />
        </mxCell>
        <mxCell id="SdDbY7e7l-mcpIlHTUZ3-19" value="" style="rounded=0;whiteSpace=wrap;html=1;" vertex="1" parent="1">
          <mxGeometry x="257.5" y="395" width="5" height="80" as="geometry" />
        </mxCell>
        <mxCell id="SdDbY7e7l-mcpIlHTUZ3-18" style="edgeStyle=orthogonalEdgeStyle;rounded=0;orthogonalLoop=1;jettySize=auto;html=1;entryX=0;entryY=0.5;entryDx=0;entryDy=0;exitX=0.875;exitY=0.5;exitDx=0;exitDy=0;exitPerimeter=0;strokeColor=#001DBC;dashed=1;fillColor=#0050ef;" edge="1" parent="1" source="SdDbY7e7l-mcpIlHTUZ3-1" target="SdDbY7e7l-mcpIlHTUZ3-17">
          <mxGeometry relative="1" as="geometry" />
        </mxCell>
        <mxCell id="SdDbY7e7l-mcpIlHTUZ3-1" value="" style="ellipse;shape=cloud;whiteSpace=wrap;html=1;fillColor=#fad7ac;strokeColor=#b46504;" vertex="1" parent="1">
          <mxGeometry x="310" y="160" width="150" height="90" as="geometry" />
        </mxCell>
        <mxCell id="SdDbY7e7l-mcpIlHTUZ3-2" value="" style="rounded=1;whiteSpace=wrap;html=1;fillColor=#fad7ac;strokeColor=#b46504;" vertex="1" parent="1">
          <mxGeometry x="315" y="270" width="140" height="50" as="geometry" />
        </mxCell>
        <mxCell id="SdDbY7e7l-mcpIlHTUZ3-4" value="&lt;font color=&quot;#000000&quot;&gt;&lt;b&gt;Cloud Database&lt;/b&gt;&lt;/font&gt;" style="text;html=1;strokeColor=none;fillColor=none;align=center;verticalAlign=middle;whiteSpace=wrap;rounded=0;" vertex="1" parent="1">
          <mxGeometry x="355" y="190" width="60" height="30" as="geometry" />
        </mxCell>
        <mxCell id="SdDbY7e7l-mcpIlHTUZ3-5" value="&lt;font style=&quot;font-size: 11px;&quot; color=&quot;#000000&quot;&gt;&lt;span style=&quot;font-size: 11px;&quot;&gt;Processor Penghitung slot parkir &amp;amp; pengirim dat&lt;/span&gt;&lt;span style=&quot;font-size: 11px;&quot;&gt;a&lt;/span&gt;&lt;/font&gt;" style="text;html=1;strokeColor=none;fillColor=none;align=center;verticalAlign=middle;whiteSpace=wrap;rounded=0;" vertex="1" parent="1">
          <mxGeometry x="322.5" y="280" width="125" height="30" as="geometry" />
        </mxCell>
        <mxCell id="SdDbY7e7l-mcpIlHTUZ3-8" value="" style="rounded=1;whiteSpace=wrap;html=1;fillColor=#fad7ac;strokeColor=#b46504;" vertex="1" parent="1">
          <mxGeometry x="220" y="360" width="80" height="40" as="geometry" />
        </mxCell>
        <mxCell id="SdDbY7e7l-mcpIlHTUZ3-9" value="" style="rounded=1;whiteSpace=wrap;html=1;fillColor=#fad7ac;strokeColor=#b46504;" vertex="1" parent="1">
          <mxGeometry x="345" y="360" width="80" height="40" as="geometry" />
        </mxCell>
        <mxCell id="SdDbY7e7l-mcpIlHTUZ3-10" value="" style="rounded=1;whiteSpace=wrap;html=1;fillColor=#fad7ac;strokeColor=#b46504;" vertex="1" parent="1">
          <mxGeometry x="475" y="360" width="80" height="40" as="geometry" />
        </mxCell>
        <mxCell id="SdDbY7e7l-mcpIlHTUZ3-11" style="edgeStyle=orthogonalEdgeStyle;rounded=0;orthogonalLoop=1;jettySize=auto;html=1;entryX=0.498;entryY=0.933;entryDx=0;entryDy=0;entryPerimeter=0;dashed=1;strokeColor=#001DBC;fillColor=#0050ef;" edge="1" parent="1" source="SdDbY7e7l-mcpIlHTUZ3-5" target="SdDbY7e7l-mcpIlHTUZ3-1">
          <mxGeometry relative="1" as="geometry" />
        </mxCell>
        <mxCell id="SdDbY7e7l-mcpIlHTUZ3-48" style="edgeStyle=orthogonalEdgeStyle;rounded=0;orthogonalLoop=1;jettySize=auto;html=1;entryX=0.5;entryY=1;entryDx=0;entryDy=0;strokeColor=#BD7000;fillColor=#f0a30a;" edge="1" parent="1" source="SdDbY7e7l-mcpIlHTUZ3-12" target="SdDbY7e7l-mcpIlHTUZ3-2">
          <mxGeometry relative="1" as="geometry" />
        </mxCell>
        <mxCell id="SdDbY7e7l-mcpIlHTUZ3-12" value="&lt;font color=&quot;#000000&quot;&gt;&lt;span style=&quot;font-size: 11px;&quot;&gt;Sensor 1&lt;/span&gt;&lt;/font&gt;" style="text;html=1;strokeColor=none;fillColor=none;align=center;verticalAlign=middle;whiteSpace=wrap;rounded=0;" vertex="1" parent="1">
          <mxGeometry x="197.5" y="360" width="125" height="35" as="geometry" />
        </mxCell>
        <mxCell id="SdDbY7e7l-mcpIlHTUZ3-13" value="&lt;font color=&quot;#000000&quot;&gt;&lt;span style=&quot;font-size: 11px;&quot;&gt;Sensor 2&lt;/span&gt;&lt;/font&gt;" style="text;html=1;strokeColor=none;fillColor=none;align=center;verticalAlign=middle;whiteSpace=wrap;rounded=0;" vertex="1" parent="1">
          <mxGeometry x="326.25" y="365" width="117.5" height="30" as="geometry" />
        </mxCell>
        <mxCell id="SdDbY7e7l-mcpIlHTUZ3-49" style="edgeStyle=orthogonalEdgeStyle;rounded=0;orthogonalLoop=1;jettySize=auto;html=1;entryX=0.5;entryY=1;entryDx=0;entryDy=0;strokeColor=#BD7000;exitX=0.5;exitY=0;exitDx=0;exitDy=0;fillColor=#f0a30a;" edge="1" parent="1" source="SdDbY7e7l-mcpIlHTUZ3-10" target="SdDbY7e7l-mcpIlHTUZ3-2">
          <mxGeometry relative="1" as="geometry" />
        </mxCell>
        <mxCell id="SdDbY7e7l-mcpIlHTUZ3-14" value="&lt;font color=&quot;#000000&quot;&gt;&lt;span style=&quot;font-size: 11px;&quot;&gt;Sensor n&lt;/span&gt;&lt;/font&gt;" style="text;html=1;strokeColor=none;fillColor=none;align=center;verticalAlign=middle;whiteSpace=wrap;rounded=0;" vertex="1" parent="1">
          <mxGeometry x="452.5" y="365" width="125" height="30" as="geometry" />
        </mxCell>
        <mxCell id="SdDbY7e7l-mcpIlHTUZ3-16" value="" style="rounded=1;whiteSpace=wrap;html=1;fillColor=#fad7ac;strokeColor=#b46504;" vertex="1" parent="1">
          <mxGeometry x="510" y="175" width="80" height="60" as="geometry" />
        </mxCell>
        <mxCell id="SdDbY7e7l-mcpIlHTUZ3-17" value="&lt;font color=&quot;#000000&quot;&gt;&lt;span style=&quot;font-size: 11px;&quot;&gt;Menampilkan data pada aplikasi&lt;/span&gt;&lt;/font&gt;" style="text;html=1;strokeColor=none;fillColor=none;align=center;verticalAlign=middle;whiteSpace=wrap;rounded=0;" vertex="1" parent="1">
          <mxGeometry x="508.75" y="190" width="82.5" height="30" as="geometry" />
        </mxCell>
        <mxCell id="SdDbY7e7l-mcpIlHTUZ3-24" value="" style="shape=parallelogram;perimeter=parallelogramPerimeter;whiteSpace=wrap;html=1;fixedSize=1;rotation=-180;fillColor=#b0e3e6;strokeColor=#0e8088;" vertex="1" parent="1">
          <mxGeometry x="210" y="475" width="90" height="105" as="geometry" />
        </mxCell>
        <mxCell id="SdDbY7e7l-mcpIlHTUZ3-25" value="" style="shape=parallelogram;perimeter=parallelogramPerimeter;whiteSpace=wrap;html=1;fixedSize=1;rotation=-180;fillColor=#b0e3e6;strokeColor=#0e8088;" vertex="1" parent="1">
          <mxGeometry x="335" y="475" width="90" height="105" as="geometry" />
        </mxCell>
        <mxCell id="SdDbY7e7l-mcpIlHTUZ3-26" value="" style="shape=parallelogram;perimeter=parallelogramPerimeter;whiteSpace=wrap;html=1;fixedSize=1;rotation=-180;fillColor=#b0e3e6;strokeColor=#0e8088;" vertex="1" parent="1">
          <mxGeometry x="465" y="475" width="90" height="105" as="geometry" />
        </mxCell>
        <mxCell id="SdDbY7e7l-mcpIlHTUZ3-27" value="&lt;font color=&quot;#000000&quot;&gt;&lt;span style=&quot;font-size: 11px;&quot;&gt;Slot 1&lt;/span&gt;&lt;/font&gt;" style="text;html=1;strokeColor=none;fillColor=none;align=center;verticalAlign=middle;whiteSpace=wrap;rounded=0;" vertex="1" parent="1">
          <mxGeometry x="192.5" y="512.5" width="125" height="30" as="geometry" />
        </mxCell>
        <mxCell id="SdDbY7e7l-mcpIlHTUZ3-28" value="&lt;font color=&quot;#000000&quot;&gt;&lt;span style=&quot;font-size: 11px;&quot;&gt;Slot 2&lt;/span&gt;&lt;/font&gt;" style="text;html=1;strokeColor=none;fillColor=none;align=center;verticalAlign=middle;whiteSpace=wrap;rounded=0;" vertex="1" parent="1">
          <mxGeometry x="317.5" y="512.5" width="125" height="30" as="geometry" />
        </mxCell>
        <mxCell id="SdDbY7e7l-mcpIlHTUZ3-29" value="&lt;font color=&quot;#000000&quot;&gt;&lt;span style=&quot;font-size: 11px;&quot;&gt;Slot n&lt;/span&gt;&lt;/font&gt;" style="text;html=1;strokeColor=none;fillColor=none;align=center;verticalAlign=middle;whiteSpace=wrap;rounded=0;" vertex="1" parent="1">
          <mxGeometry x="447.5" y="512.5" width="125" height="30" as="geometry" />
        </mxCell>
        <mxCell id="SdDbY7e7l-mcpIlHTUZ3-35" value="" style="group" vertex="1" connectable="0" parent="1">
          <mxGeometry x="245" y="400" width="30" height="10" as="geometry" />
        </mxCell>
        <mxCell id="SdDbY7e7l-mcpIlHTUZ3-30" value="" style="rounded=0;whiteSpace=wrap;html=1;fillColor=#647687;strokeColor=#314354;fontColor=#ffffff;" vertex="1" parent="SdDbY7e7l-mcpIlHTUZ3-35">
          <mxGeometry width="30" height="10" as="geometry" />
        </mxCell>
        <mxCell id="SdDbY7e7l-mcpIlHTUZ3-31" value="" style="ellipse;whiteSpace=wrap;html=1;aspect=fixed;fillColor=#f5f5f5;fontColor=#333333;strokeColor=#666666;" vertex="1" parent="SdDbY7e7l-mcpIlHTUZ3-35">
          <mxGeometry x="17.5" y="1.25" width="7.5" height="7.5" as="geometry" />
        </mxCell>
        <mxCell id="SdDbY7e7l-mcpIlHTUZ3-33" value="" style="ellipse;whiteSpace=wrap;html=1;aspect=fixed;fillColor=#f5f5f5;fontColor=#333333;strokeColor=#666666;" vertex="1" parent="SdDbY7e7l-mcpIlHTUZ3-35">
          <mxGeometry x="5" y="1.25" width="7.5" height="7.5" as="geometry" />
        </mxCell>
        <mxCell id="SdDbY7e7l-mcpIlHTUZ3-39" value="" style="group" vertex="1" connectable="0" parent="1">
          <mxGeometry x="370" y="400" width="30" height="10" as="geometry" />
        </mxCell>
        <mxCell id="SdDbY7e7l-mcpIlHTUZ3-40" value="" style="rounded=0;whiteSpace=wrap;html=1;fillColor=#647687;strokeColor=#314354;fontColor=#ffffff;" vertex="1" parent="SdDbY7e7l-mcpIlHTUZ3-39">
          <mxGeometry width="30" height="10" as="geometry" />
        </mxCell>
        <mxCell id="SdDbY7e7l-mcpIlHTUZ3-41" value="" style="ellipse;whiteSpace=wrap;html=1;aspect=fixed;fillColor=#f5f5f5;fontColor=#333333;strokeColor=#666666;" vertex="1" parent="SdDbY7e7l-mcpIlHTUZ3-39">
          <mxGeometry x="17.5" y="1.25" width="7.5" height="7.5" as="geometry" />
        </mxCell>
        <mxCell id="SdDbY7e7l-mcpIlHTUZ3-42" value="" style="ellipse;whiteSpace=wrap;html=1;aspect=fixed;fillColor=#f5f5f5;fontColor=#333333;strokeColor=#666666;" vertex="1" parent="SdDbY7e7l-mcpIlHTUZ3-39">
          <mxGeometry x="5" y="1.25" width="7.5" height="7.5" as="geometry" />
        </mxCell>
        <mxCell id="SdDbY7e7l-mcpIlHTUZ3-43" value="" style="group" vertex="1" connectable="0" parent="1">
          <mxGeometry x="500" y="400" width="30" height="10" as="geometry" />
        </mxCell>
        <mxCell id="SdDbY7e7l-mcpIlHTUZ3-44" value="" style="rounded=0;whiteSpace=wrap;html=1;fillColor=#647687;strokeColor=#314354;fontColor=#ffffff;" vertex="1" parent="SdDbY7e7l-mcpIlHTUZ3-43">
          <mxGeometry width="30" height="10" as="geometry" />
        </mxCell>
        <mxCell id="SdDbY7e7l-mcpIlHTUZ3-45" value="" style="ellipse;whiteSpace=wrap;html=1;aspect=fixed;fillColor=#f5f5f5;fontColor=#333333;strokeColor=#666666;" vertex="1" parent="SdDbY7e7l-mcpIlHTUZ3-43">
          <mxGeometry x="17.5" y="1.25" width="7.5" height="7.5" as="geometry" />
        </mxCell>
        <mxCell id="SdDbY7e7l-mcpIlHTUZ3-46" value="" style="ellipse;whiteSpace=wrap;html=1;aspect=fixed;fillColor=#f5f5f5;fontColor=#333333;strokeColor=#666666;" vertex="1" parent="SdDbY7e7l-mcpIlHTUZ3-43">
          <mxGeometry x="5" y="1.25" width="7.5" height="7.5" as="geometry" />
        </mxCell>
        <mxCell id="SdDbY7e7l-mcpIlHTUZ3-55" value="" style="endArrow=none;html=1;rounded=0;exitX=0.495;exitY=-0.044;exitDx=0;exitDy=0;exitPerimeter=0;strokeColor=#BD7000;fillColor=#f0a30a;" edge="1" parent="1">
          <mxGeometry width="50" height="50" relative="1" as="geometry">
            <mxPoint x="384.8" y="360" as="sourcePoint" />
            <mxPoint x="385" y="340" as="targetPoint" />
          </mxGeometry>
        </mxCell>
        <mxCell id="SdDbY7e7l-mcpIlHTUZ3-56" value="" style="endArrow=none;dashed=1;html=1;rounded=0;strokeColor=#0066CC;" edge="1" parent="1">
          <mxGeometry width="50" height="50" relative="1" as="geometry">
            <mxPoint x="345" y="379.89" as="sourcePoint" />
            <mxPoint x="300" y="380" as="targetPoint" />
          </mxGeometry>
        </mxCell>
      </root>
    </mxGraphModel>
  </diagram>
</mxfile>
